<?xml version="1.0" encoding="UTF-8" standalone="no"?>
<!DOCTYPE svg PUBLIC "-//W3C//DTD SVG 1.1//EN" "http://www.w3.org/Graphics/SVG/1.1/DTD/svg11.dtd">
<svg width="100%" height="100%" viewBox="0 0 9934 9934" version="1.1" xmlns="http://www.w3.org/2000/svg" xmlns:xlink="http://www.w3.org/1999/xlink" xml:space="preserve" xmlns:serif="http://www.serif.com/" style="fill-rule:evenodd;clip-rule:evenodd;stroke-linecap:round;stroke-linejoin:round;stroke-miterlimit:10;">
    <g transform="matrix(17.1542,0,0,17.1542,1535.61,175.96)">
        <path d="M480.948,430.934C482.901,457.383 480.712,484.163 461.284,499.643C441.856,515.123 415.037,492.102 390.065,517.074C349.729,557.409 311.409,558.248 282.557,558.248C253.705,558.248 215.812,555.822 171.694,520.874C135.624,492.302 99.973,438.551 92.225,425.439C81.708,407.641 67.955,423.012 67.416,442.698C66.876,462.383 84.135,465.889 84.135,465.889L115.416,405.484C115.416,405.484 112.989,386.338 106.247,370.967C99.506,355.597 101.393,338.068 101.393,338.068L97.618,360.181C97.618,360.181 84.944,383.102 76.045,393.619C67.146,404.136 45.303,430.293 45.303,430.293C45.303,430.293 17.438,457.08 6.831,446.293C-3.775,435.507 -43.685,379.956 -50.337,366.832C-56.989,353.709 -47.101,334.832 -47.101,334.832C-47.101,334.832 -56.27,340.945 -58.607,347.776C-60.944,354.608 -69.393,366.473 -69.393,366.473C-69.393,366.473 -71.011,395.776 -59.685,413.215C-48.36,430.653 -29.124,465.17 -29.124,465.17L-20.135,458.158C-11.146,451.147 -15.461,440.54 -18.337,431.192C-21.213,421.844 -10.247,417.17 -10.427,412.495C-10.607,407.821 -43.146,357.125 -43.146,357.125L-30.921,299.956C-30.921,299.956 -17.438,322.967 -7.91,348.136C1.618,373.304 20.315,441.979 33.438,428.316C46.562,414.653 68.674,348.136 68.674,348.136C68.674,348.136 88.27,337.709 102.112,332.675C115.955,327.641 120.449,313.08 122.966,306.788C125.483,300.495 139.146,252.136 139.146,252.136C139.146,252.136 138.607,258.608 137.708,268.675C136.809,278.743 124.944,332.316 126.742,385.529C127.918,420.363 162.876,446.203 162.876,446.203L172.045,468.585C181.214,490.967 252.944,484.765 252.944,484.765C252.944,484.765 258.607,531.147 283.146,540.855C307.685,550.563 337.348,481.529 328.989,441.08C320.629,400.63 283.146,369.08 285.843,390.383C288.539,411.686 417.169,430.293 434.157,431.911C451.146,433.529 422.562,481.799 381.303,500.406C340.045,519.012 276.674,486.922 231.371,449.709C186.067,412.495 141.573,322.428 144,293.304C146.427,264.181 161.798,261.484 184.449,283.597C207.101,305.709 351.101,381.754 373.214,394.158C395.326,406.563 417.978,410.068 422.831,389.304C427.685,368.54 468.674,362.877 447.64,377.439C426.607,392.001 394.247,380.675 351.101,356.406C307.955,332.136 242.157,271.731 242.157,271.731C242.157,271.731 285.303,281.17 301.483,272.81C317.663,264.45 357.553,254.221 361.348,288.99C365.143,323.758 333.843,329.979 333.843,329.979C333.843,329.979 359.461,333.215 372.135,297.619C384.809,262.024 347.596,242.068 320.36,245.304C293.124,248.54 244.315,253.934 195.775,242.608C147.236,231.282 129.708,208.63 132.674,178.967C135.64,149.304 183.371,108.855 183.371,108.855C183.371,108.855 183.371,167.372 216.27,184.361C249.169,201.349 254.831,209.979 232.989,241.529C211.146,273.08 153.438,250.788 139.865,245.484C126.292,240.181 118.742,222.024 114.337,218.338C109.933,214.653 96.09,210.338 90.607,210.967C85.124,211.597 83.236,216.001 84.854,216.361C86.472,216.72 90.427,215.282 91.685,215.282C92.944,215.282 100.674,215.282 105.348,217.619C110.022,219.956 115.596,225.259 115.596,225.259L113.798,225.349C112,225.439 96,222.203 94.202,221.754C92.405,221.304 85.034,219.237 85.034,219.237C85.034,219.237 80.809,217.709 81.978,212.765C83.146,207.821 93.214,204.855 96.719,205.574C100.225,206.293 116.854,208.81 116.854,208.81L118.472,203.597C118.472,203.597 106.697,199.821 97.079,200.361C87.461,200.9 79.64,203.327 76.225,204.855C72.809,206.383 57.169,200.181 57.169,200.181L62.202,200.181C67.236,200.181 73.348,204.585 73.708,205.394C74.067,206.203 70.202,220.226 70.202,220.226C70.202,220.226 69.258,229.126 66.966,233.306C64.674,237.485 66.292,238.26 66.337,238.889C66.382,239.518 65.536,241.9 69.131,243.923C72.727,245.945 76.367,249.406 76.682,255.878C76.996,262.35 73.441,263.114 71.643,261.63C69.845,260.147 65.005,262.096 59.118,260.883C53.23,259.669 48.256,257.226 46.908,254.439C45.559,251.653 43.174,251.785 40.387,251.381C37.6,250.976 34.679,249.808 33.915,245.448C33.151,241.089 36.66,233.091 45.559,234.305C54.458,235.518 61.581,237.057 62.03,243.394C62.48,249.731 61.048,248.663 53.048,245.023C45.048,241.382 50.472,226.789 52.854,222.16C55.236,217.53 53.968,206.615 54.202,209.08C54.743,214.77 33.26,212.899 33.26,212.899C37.08,212.854 42.337,210.653 42.067,209.799C41.798,208.945 39.506,205.304 36.944,202.788C34.382,200.271 24.629,194.203 19.775,193.799C14.921,193.394 4.674,198.024 4.674,198.024C4.674,198.024 6.067,198.248 8.719,198.293C11.371,198.338 15.775,199.237 18.876,201.529C21.978,203.821 31.011,204.046 36.135,205.664C41.258,207.282 52.719,207.552 48.539,195.147C44.36,182.743 24.809,179.372 8.899,178.698C-7.011,178.024 -25.079,189.484 -25.079,189.484C-25.079,189.484 -16.449,164.001 -15.91,146.877C-15.371,129.754 -7.497,113.387 6.036,93.143C12.29,83.787 28.594,78.77 35.868,88.553C43.142,98.335 98.074,114.388 115.632,115.14C133.19,115.893 147.236,134.203 147.236,134.203C147.236,134.203 176.686,99.328 187.221,99.83C197.756,100.331 189.228,118.14 197.756,137.955C206.284,157.771 254.945,175.83 268.991,185.111C283.038,194.392 279.024,225.745 262.971,233.772L246.918,241.798C246.918,241.798 263.724,245.059 293.071,239.29C322.418,233.521 335.21,208.187 317.15,190.629C299.091,173.071 237.136,123.909 217.321,105.348C197.505,86.786 184.462,57.69 143.076,56.687C101.689,55.684 69.332,76.252 69.332,76.252C69.332,76.252 38.229,56.185 50.771,37.123C63.312,18.06 136.303,10.786 193.241,48.159C250.179,85.532 289.81,122.655 295.077,146.484L300.345,170.312C300.345,170.312 239.895,116.886 226.852,102.839C213.809,88.793 187.221,47.156 143.076,42.641C98.93,38.126 36.223,57.941 25.688,65.215C15.153,72.489 26.942,38.878 50.771,28.594C74.599,18.31 108.461,14.297 128.026,15.551C56.289,0 46.005,8.779 14.652,35.116C-16.702,61.453 -47.805,116.635 -45.547,136.45C-43.29,156.266 -32.504,180.094 -32.504,180.094C-32.504,180.094 -44.795,151.249 -49.059,181.599C-53.323,211.95 -49.56,229.257 -43.039,233.27C-36.517,237.283 -34.009,239.792 -34.009,239.792C-34.009,239.792 -30.999,208.94 -30.999,206.181C-30.999,203.422 -35.263,184.609 -38.524,184.108C-41.785,183.606 -50.827,202.768 -44.544,213.705C-37.808,225.431 -36.839,230.036 -36.839,230.036L-34.517,245.304L-30.497,294.472C-22.471,304.505 -5.415,336.611 1.608,341.126C8.632,345.641 41.239,357.681 56.289,353.166C71.339,348.651 69.332,325.826 48.764,320.057C28.196,314.288 14.652,300.241 11.642,293.97C8.632,287.7 7.628,281.931 7.628,281.931L4.18,276.45C4.18,276.45 20.36,279.552 28.989,281.574C37.618,283.597 42.742,287.372 42.742,287.372C42.742,287.372 51.371,285.821 58.247,289.125C64.517,292.136 79.337,298.496 79.337,298.496C79.337,298.496 71.405,301.537 59.682,300.045C49.811,298.789 36.874,293.213 27.489,290.928C17.419,288.477 14.813,283.439 14.903,283.464" style="fill:none;fill-rule:nonzero;stroke:rgb(35,35,35);stroke-width:2.31px;"/>
    </g>
</svg>
