<?xml version="1.0" encoding="UTF-8" standalone="no"?>
<!DOCTYPE svg PUBLIC "-//W3C//DTD SVG 1.1//EN" "http://www.w3.org/Graphics/SVG/1.1/DTD/svg11.dtd">
<svg width="100%" height="100%" viewBox="0 0 1425 1425" version="1.1" xmlns="http://www.w3.org/2000/svg" xmlns:xlink="http://www.w3.org/1999/xlink" xml:space="preserve" xmlns:serif="http://www.serif.com/" style="fill-rule:evenodd;clip-rule:evenodd;stroke-linejoin:round;stroke-miterlimit:2;">
    <g transform="matrix(0.522448,0,0,0.454319,-1561.83,-2204.17)">
        <g transform="matrix(-0.791353,0.505591,0.314623,0.651217,5322.91,3866.61)">
            <path d="M1877.94,823.378C1977.03,784.585 2159.09,848.309 2251.53,918.774C2257.49,923.315 2287.19,934.025 2294.64,917.52C2303.69,897.494 2290.04,848.982 2290.04,848.982C2290.04,848.982 2317.6,879.886 2321.72,869.179C2338.97,824.314 2330.55,724.431 2330.55,724.431C2330.55,724.431 2348.73,774.913 2363.06,801.747C2377.41,828.634 2399.43,829.936 2410.31,829.788C2425.17,829.586 2436.92,827.621 2446.8,811.671C2462.01,787.097 2472.97,731.392 2500.68,704.28C2517.83,687.492 2555.9,689.58 2580.46,676.187C2620.04,654.606 2665.97,621.744 2696.87,619.443C2737.57,616.415 2764.06,674.539 2803.72,689.958C2853.79,709.42 2901.04,753.757 2910.55,771.527C2932.93,813.328 2969.62,890.963 2962.99,952.333C2961,970.691 2960.22,1026.2 2945,1049.48C2926.82,1077.26 2898.98,1084.6 2894.5,1109.95C2890.79,1130.9 2893.82,1151.64 2884.97,1169.07C2877.14,1184.48 2854.74,1230.44 2830.51,1257.55C2810.72,1279.72 2788.18,1281.48 2784.04,1308.67C2775.87,1362.29 2835.15,1427.46 2835.15,1427.46L2746.62,1420.2C2746.62,1420.2 2740.1,1489.15 2817.66,1530.78C2826.78,1535.68 2757.52,1556.02 2747.6,1583.52C2735.56,1616.89 2745.42,1730.98 2745.42,1730.98C2745.42,1730.98 2742.3,1738.06 2737.83,1749.36C2727.29,1775.95 2709.19,1825.88 2706.39,1861.62C2696.51,1987.94 2721.14,2110.84 2721.14,2185.89C2721.14,2331.03 2680.82,2372.07 2661.32,2504.43C2647.32,2599.4 2680.39,2815.01 2766.19,3016.57C2820.19,3143.41 2926.63,3307.47 2920.18,3378.63C2908.48,3507.8 2764.75,3449.07 2671.67,3491.82C2557.13,3544.43 2435.55,3795.99 2321.33,4021.43C2285.41,4092.33 2203.53,3582.83 2162.88,3532.96C2135.81,3499.74 2115,3490.33 2082.74,3492.3C2049.18,3494.34 1992.38,3562.97 1942.03,3604.72C1878.37,3657.52 1779.95,3637.21 1754.88,3473.84C1745.32,3411.53 1667.1,3390.28 1643.15,3336.2C1631.38,3309.62 1637.74,3271.23 1637.74,3271.23C1637.74,3271.23 1594.3,3284.64 1587.89,3255.63C1573.56,3190.76 1542.83,3167.49 1529.66,3114.91C1519.46,3074.18 1396.21,3213.68 1360.59,3115.74C1321.25,3007.59 1422.63,2778.96 1361.79,2683.12C1300.22,2586.14 1261.19,2525.7 1229.07,2372.4C1215.32,2306.8 1169.62,2265.37 1162.91,2185.89C1144.93,1972.99 1143.62,1915.71 1149.17,1779.06C1166.83,1343.88 1460.97,986.623 1877.94,823.378Z"/>
        </g>
        <g transform="matrix(0.857148,-0.114794,0.0686103,0.677472,2048.71,5326.02)">
            <path d="M3317.06,1821.93L2563.78,1821.93C2558.22,1821.93 2551.09,1822.48 2543.64,1823.28C2537.53,1823.94 2531.22,1824.76 2525.39,1825.59C2519.34,1826.45 2513.3,1830.51 2508.51,1834.68C2502.81,1839.63 2499.29,1849.71 2499.29,1849.71C2499.29,1849.71 2502.81,1839.76 2508.5,1834.98C2513.3,1830.96 2519.36,1827.08 2525.42,1826.44C2531.24,1825.82 2537.54,1825.22 2543.63,1824.78C2551.09,1824.25 2558.23,1823.95 2563.79,1824.15C2699.56,1829.06 3317.06,1851.39 3317.06,1851.39C3317.06,1851.39 3321.53,1846.17 3321.88,1837.46C3322.16,1830.28 3317.06,1821.93 3317.06,1821.93Z" style="fill:rgb(250,72,109);"/>
        </g>
        <g transform="matrix(0.216712,-0.00985322,0.0280535,0.815937,4286.99,4813.96)">
            <path d="M3326.66,1711.93C3326.66,1711.93 3321.03,1705.34 3302.1,1705.34C3283.16,1705.34 3274.38,1711.93 3274.38,1711.93L3274.38,2060.86C3274.38,2060.86 3284.24,2067.08 3301.97,2067.34C3316.27,2067.56 3326.66,2060.86 3326.66,2060.86C3326.66,2060.86 3322.71,1979.18 3342.07,1892.81C3354.73,1836.33 3326.66,1711.93 3326.66,1711.93Z" style="fill:rgb(250,72,109);"/>
        </g>
    </g>
</svg>
